<?xml version="1.0" encoding="UTF-8" standalone="no"?>
<!-- Created with Inkscape (http://www.inkscape.org/) -->
<svg
   xmlns:svg="http://www.w3.org/2000/svg"
   xmlns="http://www.w3.org/2000/svg"
   version="1.0"
   width="526"
   height="155"
   id="svg2"
   xml:space="preserve"><defs
     id="defs5" /><g
     transform="matrix(1.25,0,0,-1.25,-26.858766,789.16625)"
     id="g11"><path
       d="M 114.75423,599.97758 C 114.75423,616.91633 100.99149,630.64731 84.005099,630.64731 C 67.018707,630.64731 53.250679,616.91633 53.250679,599.97758 L 114.75423,599.97758"
       id="path23"
       style="fill:#00958f;fill-opacity:1;fill-rule:nonzero;stroke:none" /><path
       d="M 52.308461,538.68842 C 52.308461,521.74702 66.073843,508.01869 83.060234,508.01869 C 100.04133,508.01869 113.80936,521.74702 113.80936,538.68842 L 52.308461,538.68842"
       id="path25"
       style="fill:#00958f;fill-opacity:1;fill-rule:nonzero;stroke:none" /><path
       d="M 113.78554,538.85251 C 130.76929,538.85251 146.42705,552.58349 146.42705,569.52224 C 146.42705,586.46099 130.76929,600.18932 113.78554,600.18932 L 53.279792,600.18932 C 36.296047,600.18932 22.528019,586.46099 22.528019,569.52224 C 22.528019,552.58349 36.296047,538.85251 53.279792,538.85251 L 113.78554,538.85251"
       id="path27"
       style="fill:#00958f;fill-opacity:1;fill-rule:nonzero;stroke:none" /><path
       d="M 53.250679,600.1655 C 53.250679,583.22939 67.018707,569.49577 84.005099,569.49577 C 100.99149,569.49577 114.75423,583.22939 114.75423,600.1655 L 53.250679,600.1655"
       id="path29"
       style="fill:#ffffff;fill-opacity:1;fill-rule:nonzero;stroke:none" /><path
       d="M 113.80936,538.87633 C 113.80936,555.81508 100.04133,569.54871 83.060234,569.54871 C 66.073843,569.54871 52.308461,555.81508 52.308461,538.87633 L 113.80936,538.87633"
       id="path31"
       style="fill:#ffffff;fill-opacity:1;fill-rule:nonzero;stroke:none" /><path
       d="M 175.07736,538.51109 L 175.07736,599.85054 L 195.3271,599.87436 L 207.22658,570.55709 L 220.47056,599.78438 L 239.99512,599.78438 L 239.99512,538.51109 L 225.81686,538.51109 L 225.81686,578.72474 L 206.59137,538.18026 L 188.93802,580.60918 L 188.93802,538.51109 L 175.07736,538.51109"
       id="path33"
       style="fill:#333333;fill-opacity:1;fill-rule:nonzero;stroke:none" /><path
       d="M 245.98191,538.51109 L 245.98191,599.69174 L 282.53785,599.69174 L 282.53785,589.31676 L 260.16547,589.31676 L 260.16547,575.1729 L 281.5824,575.1729 L 281.5824,563.85834 L 260.16547,563.85834 L 260.16547,549.71449 L 282.22819,549.71449 L 282.22819,538.51109 L 245.98191,538.51109"
       id="path35"
       style="fill:#333333;fill-opacity:1;fill-rule:nonzero;stroke:none" /><path
       d="M 288.14617,538.54285 L 288.14617,599.73409 C 288.14617,599.73409 312.17537,599.94847 316.2592,599.73409 C 322.24334,599.41913 332.79566,592.66216 332.79566,582.28982 C 332.79566,572.54475 327.28527,565.16051 321.93368,565.16051 L 340.01051,538.52168 L 324.26541,538.52168 L 301.13342,572.3833 L 310.2777,572.70619 C 315.31698,573.01321 318.46918,577.10233 318.46918,580.8765 C 318.46918,584.65066 315.63194,589.61054 310.2777,589.61054 C 304.91024,589.61054 302.07829,589.61054 302.07829,589.61054 L 302.07829,538.54285 L 288.14617,538.54285"
       id="path37"
       style="fill:#333333;fill-opacity:1;fill-rule:nonzero;stroke:none" /><path
       d="M 383.38165,581.77637 L 383.38165,581.77637 C 379.52014,584.72741 378.96699,587.43497 367.94621,587.43497 C 356.91485,587.43497 348.09082,579.26202 348.09082,567.63251 C 348.09082,556.00035 358.96073,547.36159 367.46981,547.36159 C 375.97359,547.36159 380.23739,550.3444 383.38165,553.48601 L 383.38165,539.34479 C 375.00226,535.49917 371.41336,536.06556 367.62596,536.20054 C 358.80723,536.51814 333.97872,541.84855 333.90461,568.88704 C 333.84903,589.62642 355.33214,600.63131 367.94621,600.32165 C 378.33708,600.05963 382.75968,596.86244 383.7019,595.91758 L 383.38165,581.77637"
       id="path39"
       style="fill:#333333;fill-opacity:1;fill-rule:nonzero;stroke:none" /><path
       d="M 389.69398,599.77644 L 403.55729,599.77644 L 403.55729,538.48727 L 389.69398,538.48727 L 389.69398,599.77644 z"
       id="path41"
       style="fill:#333333;fill-opacity:1;fill-rule:nonzero;stroke:none" /><path
       d="M 423.57678,599.62822 L 439.95972,599.62822 L 419.63322,571.49137 L 441.24601,538.60902 L 424.871,538.60902 L 402.60978,571.80368 L 423.57678,599.62822"
       id="path43"
       style="fill:#333333;fill-opacity:1;fill-rule:nonzero;stroke:none" /></g></svg>