<?xml version="1.0" encoding="UTF-8"?>
<svg version="1.0" viewBox="0 0 500 168" xml:space="preserve" xmlns="http://www.w3.org/2000/svg"><g transform="matrix(1.25 0 0 -1.25 -361.73 223.04)"><path d="m488.87 178.2c-130.37 0-199.48-92.498-199.48-92.498l28.331-19.143s3.4257 8.58 11.276 20.855c0.0317-3.0768 0.45464-5.2231 0.45464-5.2231 5.0064-38.867 42.768-37.931 42.768-37.931h234.09s38.264-1.052 43.26 37.788c0 0 0.40706 2.0036 0.4282 5.0592 7.6919-11.969 11.075-20.29 11.075-20.29l28.315 18.942s-70.163 92.44-200.52 92.44" fill="#ed1c24"/><path d="m643.78 82.638s-5.1015-29.721-37.957-29.721h-233.71c-32.85 0-37.476 29.996-37.476 29.996-1.2635 7.9615 0.2749 13.412 2.7331 17.181 23.657 31.143 70.469 72.97 151.4 72.97 81.619 0 128.83-42.43 152.47-73.578 2.7331-3.4732 3.7587-9.1404 2.5375-16.848" fill="#fff"/><path d="m420.61 115.04 3.9015 8.358h-49.995l-3.9226-8.358h19.37l-20.052-40.775h12.947l20.041 40.775h17.71z" fill="#ed1c24"/><path d="m601.16 87.79c-3.7164-5.2337-8.9818-7.8875-11.768-5.9103-2.7807 1.9824-2.0142 7.8241 1.7023 13.058 3.7164 5.2337 8.9924 7.8928 11.768 5.9156 2.7913-1.9877 2.0142-7.8294-1.7023-13.063m-43.757 0.20089c-3.7376-5.2442-9.003-7.8875-11.784-5.9103-2.7649 1.9772-2.0247 7.8188 1.7023 13.063 3.7323 5.2337 9.0082 7.8822 11.773 5.9103 2.7649-1.9772 2.0247-7.8294-1.6917-13.063m-54.377 3.8063s2.4212 8.1254 10.256 11.377c0 0 2.2309 0.75597 3.4257-0.22204 0 0 1.6758-1.6124-0.31719-4.5993-1.7868-2.6644-6.0795-7.4857-10.737-9.1087 0 0-4.2239-1.845-2.6274 2.5534m-76.332-3.8063c-3.7376-5.2442-8.9924-7.8875-11.768-5.9103-2.7807 1.9772-2.0353 7.8188 1.6811 13.063 3.727 5.2337 9.003 7.8822 11.778 5.9103 2.7913-1.9772 2.0142-7.8294-1.6917-13.063m186.92-6.365s-2.5217-1.1736-3.6054-0.04229c-1.0837 1.1207-0.1163 3.2089-0.1163 3.2089l10.562 22.209h-10.769l-1.6494-2.9657c-6.291 5.535-18.122 2.675-25.449-4.9852-4.2345-4.4143-6.6293-9.6532-6.9518-14.21-1.2-0.79298-3.2036-2.0036-5.7835-3.0186 0 0-2.527-1.1842-3.6213-0.04229-1.0837 1.1207-0.10573 3.2195-0.10573 3.2195l18.751 38.592h-10.758l-9.8488-19.354c-6.291 5.5244-18.112 2.675-25.455-4.9852-1.4855-1.5701-2.7331-3.2142-3.7693-4.9059l0.0106 0.03701c-0.0687-0.13745-0.14274-0.28547-0.21675-0.41235-0.23789-0.40178-0.46521-0.78769-0.66081-1.1789-5.8522-10.14-13.132-11.821-13.132-11.821-15.384-4.5993-17.139 2.934-17.139 2.934 17.229 6.3703 23.705 13.914 23.107 19.687-0.58152 5.7782-8.5113 6.0795-8.5113 6.0795-13.031 0.78241-24.313-8.3316-27.051-17.25-0.8247-2.7173-1.0837-5.5086-0.57623-8.0514-5.2178-2.7807-8.2206-3.2248-8.2206-3.2248-4.335-1.3692-4.8742 0.68725-5.387 1.9402-0.52865 1.2846-2.49 12.381-2.49 12.381l18.297 11.969h-11.192l-13.745-8.5219c-3.0979-1.2846-1.8979 1.9719-1.8979 1.9719l11.223 22.722h-10.779l-18.207-36.889c-2.0935-1.2582-6.2857-3.69-9.3413-4.8953 0 0-2.5217-1.1842-3.6054-0.04229-1.1049 1.1207-0.12159 3.2195-0.12159 3.2195l10.573 22.203h-10.774l-1.6494-2.9657c-6.2857 5.5244-18.122 2.675-25.449-4.9852-7.343-7.6655-9.2144-17.773-4.1922-22.579 4.0125-3.8433 11.234-3.1243 17.715 1.237 0 0 1.6335 1.4062 2.5217-0.23789 0.91457-1.7128 4.6257-5.5826 13.174-2.2098 2.7437 1.0732 5.2019 2.3102 7.3113 3.4732l-2.2309-4.5147h10.758l5.3976 10.906 4.6892 2.9869s1.4379 1.1313 2.0036-1.2846c0 0 2.3314-9.1827 3.2301-10.367 0.90928-1.2 2.7067-3.912 10.277-1.7393 5.7993 1.6758 11.202 3.727 14.062 4.9482 2.5322-3.4997 7.3906-5.8628 15.394-5.8628 11.8 0 20.147 5.6354 23.668 8.5695 0.25375-2.3366 1.1525-4.3878 2.7437-5.9051 4.0072-3.8433 11.223-3.1243 17.699 1.237 0 0 1.6388 1.4062 2.5375-0.23789 0.91986-1.7128 4.6151-5.5826 13.174-2.2098 3.9279 1.549 6.55 3.0292 8.2734 4.1816 0.46521-1.2159 1.1472-2.2785 2.0723-3.1772 4.0283-3.8274 11.234-3.1191 17.71 1.2529 0 0 1.6441 1.4115 2.5428-0.24847 0.904-1.7128 4.6257-5.5879 13.163-2.2045 8.5589 3.3675 11.007 6.4231 11.007 6.4231l-2.1569 3.8063c-0.30133-0.16917-2.934-2.2573-7.0417-3.8697" fill="#ed1c24"/></g></svg>
